<svg width="1080" height="201" viewBox="0 0 1080 201" fill="none" xmlns="http://www.w3.org/2000/svg">
<path d="M188.683 18.1426L149.979 0V24.1901H0V65.3134H63.7007V160.461L102.405 178.201V65.3134H149.979V153.607H188.683V105.63H255.609V154.011H294.313V24.1901H255.609V64.5071H188.683V18.1426Z" fill="#F22C54"/>
<mask id="mask0_935_97" style="mask-type:alpha" maskUnits="userSpaceOnUse" x="274" y="24" width="147" height="131">
<path d="M420.565 24.1895H340.274V24.1907L340.134 24.1899C340.046 24.1896 339.959 24.1895 339.871 24.1895C304.022 24.1895 274.961 53.2507 274.961 89.0997C274.961 124.949 304.022 154.01 339.871 154.01C340.006 154.01 340.14 154.009 340.274 154.009V154.01H420.565C420.525 153.983 420.485 153.956 420.444 153.93L389.461 112.887H340.274V112.883C340.14 112.886 340.006 112.887 339.871 112.887C326.734 112.887 316.084 102.237 316.084 89.0997C316.084 75.9625 326.734 65.3127 339.871 65.3127C340.006 65.3127 340.14 65.3138 340.274 65.316V65.3127H389.461L420.444 24.2698L420.565 24.1895Z" fill="#7A7A7A"/>
</mask>
<g mask="url(#mask0_935_97)">
<path d="M418.892 21.7715L316.891 157.236" stroke="#F22C54" stroke-width="4.83803"/>
<path d="M475.336 21.7715L373.334 157.236" stroke="#F22C54" stroke-width="4.83803"/>
<path d="M430.18 21.7715L328.178 157.236" stroke="#F22C54" stroke-width="4.83803"/>
<path d="M486.625 21.7715L384.623 157.236" stroke="#F22C54" stroke-width="4.83803"/>
<path d="M441.469 21.7715L339.467 157.236" stroke="#F22C54" stroke-width="4.83803"/>
<path d="M497.914 21.7715L395.912 157.236" stroke="#F22C54" stroke-width="4.83803"/>
<path d="M509.203 21.7715L407.201 157.236" stroke="#F22C54" stroke-width="4.83803"/>
<path d="M520.492 21.7715L418.49 157.236" stroke="#F22C54" stroke-width="4.83803"/>
<path d="M407.603 21.7715L305.602 157.236" stroke="#F22C54" stroke-width="4.83803"/>
<path d="M464.047 21.7715L362.045 157.236" stroke="#F22C54" stroke-width="4.83803"/>
<path d="M396.314 21.7715L294.312 157.236" stroke="#F22C54" stroke-width="4.83803"/>
<path d="M452.758 21.7715L350.756 157.236" stroke="#F22C54" stroke-width="4.83803"/>
<path d="M385.027 21.7715L283.025 157.236" stroke="#F22C54" stroke-width="4.83803"/>
<path d="M373.738 21.7715L271.736 157.236" stroke="#F22C54" stroke-width="4.83803"/>
<path d="M362.449 21.7715L260.447 157.236" stroke="#F22C54" stroke-width="4.83803"/>
<path d="M351.16 21.7715L249.158 157.236" stroke="#F22C54" stroke-width="4.83803"/>
<path d="M339.871 21.7715L237.869 157.236" stroke="#F22C54" stroke-width="4.83803"/>
<path d="M328.584 21.7715L226.582 157.236" stroke="#F22C54" stroke-width="4.83803"/>
<path d="M317.295 21.7715L215.293 157.236" stroke="#F22C54" stroke-width="4.83803"/>
<path d="M306.006 21.7715L204.004 157.236" stroke="#F22C54" stroke-width="4.83803"/>
</g>
<mask id="mask1_935_97" style="mask-type:alpha" maskUnits="userSpaceOnUse" x="401" y="24" width="285" height="131">
<path fill-rule="evenodd" clip-rule="evenodd" d="M541.859 24.1895V42.8633C530.141 31.3156 514.053 24.1895 496.301 24.1895L496.168 24.1896C496.078 24.1897 495.988 24.1901 495.898 24.1907V24.1895H466.87V24.1907C466.736 24.1898 466.601 24.1895 466.467 24.1895C430.618 24.1895 401.557 53.2507 401.557 89.0997C401.557 124.949 430.618 154.01 466.467 154.01L466.652 154.01C466.725 154.009 466.797 154.009 466.87 154.009V154.01H495.898V154.009C496.032 154.009 496.167 154.01 496.301 154.01C514.053 154.01 530.141 146.884 541.859 135.336V154.01H580.564V84.9539L646.371 154.969L647.392 154.01H685.388V24.1895H646.683V95.2568L580.564 24.9083V24.1895H541.859ZM495.898 65.316C495.97 65.3149 496.041 65.314 496.113 65.3134C496.176 65.3129 496.238 65.3127 496.301 65.3127C509.439 65.3127 520.088 75.9625 520.088 89.0997C520.088 102.237 509.439 112.887 496.301 112.887L496.195 112.886L496.089 112.886L496.063 112.886C496.008 112.885 495.953 112.884 495.898 112.883V112.887H466.87V112.883L466.81 112.884L466.739 112.885L466.682 112.886L466.62 112.886L466.538 112.887L466.467 112.887C453.33 112.887 442.68 102.237 442.68 89.0997C442.68 75.9625 453.33 65.3127 466.467 65.3127L466.551 65.3128L466.677 65.3136C466.715 65.3139 466.753 65.3143 466.791 65.3149L466.87 65.316V65.3127H495.898V65.316Z" fill="#999999"/>
</mask>
<g mask="url(#mask1_935_97)">
<path d="M439.053 21.7715L337.051 157.236" stroke="#F22C54" stroke-width="4.83803"/>
<path d="M450.342 21.7715L348.34 157.236" stroke="#F22C54" stroke-width="4.83803"/>
<path d="M461.629 21.7715L359.627 157.236" stroke="#F22C54" stroke-width="4.83803"/>
<path d="M472.918 21.7715L370.916 157.236" stroke="#F22C54" stroke-width="4.83803"/>
<path d="M484.207 21.7715L382.205 157.236" stroke="#F22C54" stroke-width="4.83803"/>
<path d="M495.494 21.7715L393.492 157.236" stroke="#F22C54" stroke-width="4.83803"/>
<path d="M506.783 21.7715L404.781 157.236" stroke="#F22C54" stroke-width="4.83803"/>
<path d="M518.072 21.7715L416.07 157.236" stroke="#F22C54" stroke-width="4.83803"/>
<path d="M529.361 21.7715L427.359 157.236" stroke="#F22C54" stroke-width="4.83803"/>
<path d="M540.65 21.7715L438.648 157.236" stroke="#F22C54" stroke-width="4.83803"/>
<path d="M551.939 21.7715L449.938 157.236" stroke="#F22C54" stroke-width="4.83803"/>
<path d="M563.226 21.7715L461.225 157.236" stroke="#F22C54" stroke-width="4.83803"/>
<path d="M574.515 21.7715L472.514 157.236" stroke="#F22C54" stroke-width="4.83803"/>
<path d="M585.805 21.7715L483.803 157.236" stroke="#F22C54" stroke-width="4.83803"/>
<path d="M597.094 21.7715L495.092 157.236" stroke="#F22C54" stroke-width="4.83803"/>
<path d="M608.383 21.7715L506.381 157.236" stroke="#F22C54" stroke-width="4.83803"/>
<path d="M619.672 21.7715L517.67 157.236" stroke="#F22C54" stroke-width="4.83803"/>
<path d="M630.959 21.7715L528.957 157.236" stroke="#F22C54" stroke-width="4.83803"/>
<path d="M642.248 21.7715L540.246 157.236" stroke="#F22C54" stroke-width="4.83803"/>
<path d="M653.537 21.7715L551.535 157.236" stroke="#F22C54" stroke-width="4.83803"/>
<path d="M664.828 21.7715L562.826 157.236" stroke="#F22C54" stroke-width="4.83803"/>
<path d="M676.115 21.7715L574.113 157.236" stroke="#F22C54" stroke-width="4.83803"/>
<path d="M687.404 21.7715L585.402 157.236" stroke="#F22C54" stroke-width="4.83803"/>
<path d="M698.693 21.7715L596.691 157.236" stroke="#F22C54" stroke-width="4.83803"/>
<path d="M709.982 21.7715L607.98 157.236" stroke="#F22C54" stroke-width="4.83803"/>
<path d="M721.271 21.7715L619.27 157.236" stroke="#F22C54" stroke-width="4.83803"/>
<path d="M732.558 21.7715L630.557 157.236" stroke="#F22C54" stroke-width="4.83803"/>
<path d="M743.847 21.7715L641.846 157.236" stroke="#F22C54" stroke-width="4.83803"/>
<path d="M755.137 21.7715L653.135 157.236" stroke="#F22C54" stroke-width="4.83803"/>
<path d="M766.424 21.7715L664.422 157.236" stroke="#F22C54" stroke-width="4.83803"/>
<path d="M777.713 21.7715L675.711 157.236" stroke="#F22C54" stroke-width="4.83803"/>
</g>
<path d="M137.063 191.072H132.467V170.543H137.063V191.072ZM143.681 174.679H125.848V170.543H143.681V174.679ZM156.448 191.379C154.384 191.379 152.617 190.95 151.147 190.092C149.696 189.213 148.573 187.988 147.776 186.415C146.98 184.822 146.581 182.952 146.581 180.808C146.581 178.663 146.98 176.804 147.776 175.231C148.573 173.638 149.696 172.412 151.147 171.554C152.617 170.676 154.384 170.236 156.448 170.236C158.49 170.236 160.247 170.676 161.718 171.554C163.189 172.412 164.312 173.638 165.088 175.231C165.885 176.804 166.283 178.663 166.283 180.808C166.283 182.952 165.885 184.822 165.088 186.415C164.312 187.988 163.189 189.213 161.718 190.092C160.247 190.95 158.49 191.379 156.448 191.379ZM156.448 186.936C157.612 186.936 158.552 186.762 159.267 186.415C160.002 186.047 160.533 185.424 160.86 184.546C161.207 183.647 161.381 182.401 161.381 180.808C161.381 179.194 161.207 177.948 160.86 177.069C160.533 176.191 160.002 175.578 159.267 175.231C158.552 174.863 157.612 174.679 156.448 174.679C155.263 174.679 154.303 174.863 153.567 175.231C152.852 175.578 152.321 176.191 151.974 177.069C151.647 177.948 151.484 179.194 151.484 180.808C151.484 182.401 151.647 183.647 151.974 184.546C152.321 185.424 152.852 186.047 153.567 186.415C154.303 186.762 155.263 186.936 156.448 186.936ZM180.17 191.379C178.168 191.379 176.493 191.042 175.144 190.368C173.817 189.693 172.816 188.744 172.142 187.518C171.488 186.272 171.161 184.791 171.161 183.075V170.543H175.727V183.014C175.727 183.994 175.859 184.77 176.125 185.342C176.411 185.914 176.871 186.323 177.504 186.568C178.137 186.813 179.026 186.936 180.17 186.936C181.293 186.936 182.171 186.813 182.805 186.568C183.458 186.323 183.918 185.914 184.184 185.342C184.449 184.77 184.582 183.994 184.582 183.014V170.543H189.178V183.075C189.178 184.791 188.841 186.272 188.167 187.518C187.493 188.744 186.482 189.693 185.133 190.368C183.806 191.042 182.151 191.379 180.17 191.379ZM199.373 191.072H194.777V170.543H199.373V191.072ZM209.975 191.072H196.064V186.936H209.975V191.072ZM222.591 191.379C220.528 191.379 218.761 190.95 217.29 190.092C215.84 189.213 214.716 187.988 213.92 186.415C213.123 184.822 212.725 182.952 212.725 180.808C212.725 178.663 213.123 176.804 213.92 175.231C214.716 173.638 215.84 172.412 217.29 171.554C218.761 170.676 220.528 170.236 222.591 170.236C224.634 170.236 226.391 170.676 227.861 171.554C229.332 172.412 230.456 173.638 231.232 175.231C232.029 176.804 232.427 178.663 232.427 180.808C232.427 182.952 232.029 184.822 231.232 186.415C230.456 187.988 229.332 189.213 227.861 190.092C226.391 190.95 224.634 191.379 222.591 191.379ZM222.591 186.936C223.755 186.936 224.695 186.762 225.41 186.415C226.145 186.047 226.677 185.424 227.003 184.546C227.351 183.647 227.524 182.401 227.524 180.808C227.524 179.194 227.351 177.948 227.003 177.069C226.677 176.191 226.145 175.578 225.41 175.231C224.695 174.863 223.755 174.679 222.591 174.679C221.406 174.679 220.446 174.863 219.711 175.231C218.996 175.578 218.465 176.191 218.118 177.069C217.791 177.948 217.627 179.194 217.627 180.808C217.627 182.401 217.791 183.647 218.118 184.546C218.465 185.424 218.996 186.047 219.711 186.415C220.446 186.762 221.406 186.936 222.591 186.936ZM246.313 191.379C244.311 191.379 242.636 191.042 241.288 190.368C239.96 189.693 238.959 188.744 238.285 187.518C237.632 186.272 237.305 184.791 237.305 183.075V170.543H241.87V183.014C241.87 183.994 242.003 184.77 242.269 185.342C242.555 185.914 243.014 186.323 243.647 186.568C244.281 186.813 245.169 186.936 246.313 186.936C247.437 186.936 248.315 186.813 248.948 186.568C249.602 186.323 250.062 185.914 250.327 185.342C250.593 184.77 250.725 183.994 250.725 183.014V170.543H255.322V183.075C255.322 184.791 254.984 186.272 254.31 187.518C253.636 188.744 252.625 189.693 251.277 190.368C249.949 191.042 248.295 191.379 246.313 191.379ZM269.446 191.379C267.444 191.379 265.79 191.113 264.482 190.582C263.175 190.051 262.205 189.264 261.571 188.223C260.938 187.181 260.621 185.904 260.621 184.393V183.994H265.126V184.301C265.126 185.056 265.248 185.649 265.493 186.078C265.738 186.486 266.178 186.783 266.811 186.966C267.465 187.13 268.414 187.212 269.66 187.212C270.968 187.212 271.836 187.069 272.265 186.783C272.694 186.497 272.908 186.006 272.908 185.312C272.908 184.842 272.837 184.464 272.694 184.178C272.571 183.892 272.285 183.657 271.836 183.473C271.387 183.269 270.682 183.095 269.722 182.952L266.106 182.309C264.799 182.084 263.726 181.717 262.889 181.206C262.072 180.675 261.469 180.021 261.081 179.245C260.713 178.448 260.53 177.519 260.53 176.457C260.53 175.394 260.795 174.393 261.326 173.454C261.878 172.514 262.756 171.748 263.961 171.156C265.187 170.543 266.77 170.236 268.711 170.236C270.672 170.236 272.255 170.543 273.46 171.156C274.686 171.769 275.584 172.616 276.156 173.699C276.728 174.761 277.014 175.977 277.014 177.345V177.59H272.479V177.253C272.479 176.538 272.367 175.977 272.142 175.568C271.918 175.159 271.519 174.863 270.947 174.679C270.375 174.496 269.579 174.404 268.557 174.404C267.25 174.404 266.341 174.557 265.83 174.863C265.34 175.149 265.095 175.619 265.095 176.273C265.095 176.702 265.177 177.049 265.34 177.315C265.504 177.56 265.79 177.754 266.198 177.897C266.627 178.04 267.24 178.193 268.037 178.356L271.683 179.061C273.113 179.327 274.246 179.756 275.084 180.348C275.942 180.92 276.555 181.614 276.922 182.432C277.29 183.249 277.474 184.158 277.474 185.159C277.474 186.241 277.208 187.263 276.677 188.223C276.146 189.162 275.298 189.928 274.134 190.521C272.97 191.093 271.407 191.379 269.446 191.379ZM286.677 191.072H282.081V170.543H286.677V191.072ZM297.738 191.072H283.368V186.936H297.738V191.072ZM297.279 182.799H283.368V178.693H297.279V182.799ZM297.738 174.679H283.368V170.543H297.738V174.679ZM329.823 191.072H325.227V170.543H329.823V191.072ZM316.28 191.072H311.684V170.543H316.28V191.072ZM327.556 182.799H312.971V178.693H327.556V182.799ZM338.31 191.072H333.53L341.098 170.543H347.778L355.346 191.072H350.352L346.031 179.214L344.53 174.587H344.224L342.661 179.214L338.31 191.072ZM351.332 186.507H337.728V182.401H351.332V186.507ZM367.869 191.379C365.806 191.379 364.039 190.95 362.568 190.092C361.118 189.213 359.994 187.988 359.197 186.415C358.421 184.822 358.033 182.952 358.033 180.808C358.033 178.663 358.421 176.804 359.197 175.231C359.994 173.638 361.118 172.412 362.568 171.554C364.039 170.676 365.806 170.236 367.869 170.236C369.911 170.236 371.617 170.574 372.986 171.248C374.375 171.922 375.427 172.882 376.142 174.128C376.857 175.354 377.214 176.814 377.214 178.51V178.785H372.312V178.632C372.312 177.161 371.975 176.14 371.3 175.568C370.626 174.976 369.472 174.679 367.838 174.679C366.674 174.679 365.734 174.853 365.019 175.2C364.304 175.548 363.773 176.16 363.426 177.039C363.099 177.917 362.936 179.173 362.936 180.808C362.936 182.421 363.099 183.678 363.426 184.576C363.773 185.455 364.304 186.068 365.019 186.415C365.734 186.762 366.674 186.936 367.838 186.936C369.472 186.936 370.626 186.65 371.3 186.078C371.975 185.485 372.312 184.454 372.312 182.983V182.83H377.214V183.106C377.214 184.801 376.857 186.272 376.142 187.518C375.427 188.744 374.375 189.693 372.986 190.368C371.617 191.042 369.911 191.379 367.869 191.379ZM400.611 191.072H395.341L390.745 183.167H384.433V178.724H390.684L395.494 170.543H400.703L394.514 180.716L400.611 191.072ZM386.792 191.072H382.196V170.543H386.792V191.072ZM409.06 191.072H404.463V170.543H409.06V191.072ZM419.388 191.072H414.792V170.543H419.694L426.343 180.838L428.059 183.596H428.365L428.304 180.838V170.543H432.9V191.072H427.998L421.624 181.359L419.633 178.203H419.326L419.388 181.359V191.072ZM446.924 191.379C444.963 191.379 443.308 190.96 441.96 190.122C440.612 189.264 439.58 188.049 438.865 186.476C438.17 184.883 437.823 182.993 437.823 180.808C437.823 178.663 438.222 176.804 439.018 175.231C439.815 173.638 440.959 172.412 442.45 171.554C443.941 170.676 445.729 170.236 447.812 170.236C449.855 170.236 451.571 170.563 452.96 171.217C454.349 171.85 455.401 172.749 456.116 173.913C456.831 175.078 457.188 176.477 457.188 178.111V178.264H452.316V178.142C452.316 176.834 451.969 175.936 451.275 175.445C450.58 174.935 449.395 174.679 447.72 174.679C446.556 174.679 445.606 174.853 444.871 175.2C444.135 175.548 443.594 176.171 443.247 177.069C442.899 177.948 442.726 179.194 442.726 180.808C442.726 182.442 442.91 183.708 443.277 184.607C443.645 185.506 444.227 186.129 445.024 186.476C445.82 186.823 446.862 186.997 448.149 186.997C449.232 186.997 450.11 186.915 450.784 186.752C451.479 186.588 451.989 186.282 452.316 185.833C452.664 185.383 452.837 184.74 452.837 183.902V182.523H457.249V182.983L453.327 187.947H452.807C452.602 188.478 452.265 189.009 451.795 189.54C451.346 190.071 450.723 190.511 449.926 190.858C449.13 191.205 448.129 191.379 446.924 191.379ZM457.249 191.072H452.99V185.526L452.837 185.159V180.716H457.249V191.072ZM457.249 183.994H447.23V180.164H457.249V183.994ZM480.915 191.379C478.852 191.379 477.085 190.95 475.615 190.092C474.164 189.213 473.041 187.988 472.244 186.415C471.468 184.822 471.08 182.952 471.08 180.808C471.08 178.663 471.468 176.804 472.244 175.231C473.041 173.638 474.164 172.412 475.615 171.554C477.085 170.676 478.852 170.236 480.915 170.236C482.958 170.236 484.664 170.574 486.032 171.248C487.422 171.922 488.474 172.882 489.188 174.128C489.903 175.354 490.261 176.814 490.261 178.51V178.785H485.358V178.632C485.358 177.161 485.021 176.14 484.347 175.568C483.673 174.976 482.519 174.679 480.885 174.679C479.72 174.679 478.781 174.853 478.066 175.2C477.351 175.548 476.82 176.16 476.473 177.039C476.146 177.917 475.982 179.173 475.982 180.808C475.982 182.421 476.146 183.678 476.473 184.576C476.82 185.455 477.351 186.068 478.066 186.415C478.781 186.762 479.72 186.936 480.885 186.936C482.519 186.936 483.673 186.65 484.347 186.078C485.021 185.485 485.358 184.454 485.358 182.983V182.83H490.261V183.106C490.261 184.801 489.903 186.272 489.188 187.518C488.474 188.744 487.422 189.693 486.032 190.368C484.664 191.042 482.958 191.379 480.915 191.379ZM504.859 191.379C502.796 191.379 501.029 190.95 499.558 190.092C498.108 189.213 496.984 187.988 496.188 186.415C495.391 184.822 494.993 182.952 494.993 180.808C494.993 178.663 495.391 176.804 496.188 175.231C496.984 173.638 498.108 172.412 499.558 171.554C501.029 170.676 502.796 170.236 504.859 170.236C506.902 170.236 508.659 170.676 510.129 171.554C511.6 172.412 512.724 173.638 513.5 175.231C514.297 176.804 514.695 178.663 514.695 180.808C514.695 182.952 514.297 184.822 513.5 186.415C512.724 187.988 511.6 189.213 510.129 190.092C508.659 190.95 506.902 191.379 504.859 191.379ZM504.859 186.936C506.023 186.936 506.963 186.762 507.678 186.415C508.413 186.047 508.945 185.424 509.271 184.546C509.619 183.647 509.792 182.401 509.792 180.808C509.792 179.194 509.619 177.948 509.271 177.069C508.945 176.191 508.413 175.578 507.678 175.231C506.963 174.863 506.023 174.679 504.859 174.679C503.674 174.679 502.714 174.863 501.979 175.231C501.264 175.578 500.733 176.191 500.386 177.069C500.059 177.948 499.895 179.194 499.895 180.808C499.895 182.401 500.059 183.647 500.386 184.546C500.733 185.424 501.264 186.047 501.979 186.415C502.714 186.762 503.674 186.936 504.859 186.936ZM524.261 191.072H519.665V170.543H524.567L531.216 180.838L532.932 183.596H533.239L533.177 180.838V170.543H537.773V191.072H532.871L526.498 181.359L524.506 178.203H524.199L524.261 181.359V191.072ZM555.207 191.072H549.079L541.633 170.543H546.811L552.051 185.925H552.357L557.505 170.543H562.653L555.207 191.072ZM571.129 191.072H566.533V170.543H571.129V191.072ZM582.191 191.072H567.82V186.936H582.191V191.072ZM581.731 182.799H567.82V178.693H581.731V182.799ZM582.191 174.679H567.82V170.543H582.191V174.679ZM591.96 191.072H587.364V170.543H592.267L598.916 180.838L600.632 183.596H600.938L600.877 180.838V170.543H605.473V191.072H600.57L594.197 181.359L592.205 178.203H591.899L591.96 181.359V191.072ZM620.485 191.072H615.888V170.543H620.485V191.072ZM627.103 174.679H609.27V170.543H627.103V174.679ZM635.507 191.072H630.911V170.543H635.507V191.072ZM650.437 191.379C648.373 191.379 646.607 190.95 645.136 190.092C643.685 189.213 642.562 187.988 641.765 186.415C640.969 184.822 640.57 182.952 640.57 180.808C640.57 178.663 640.969 176.804 641.765 175.231C642.562 173.638 643.685 172.412 645.136 171.554C646.607 170.676 648.373 170.236 650.437 170.236C652.479 170.236 654.236 170.676 655.707 171.554C657.178 172.412 658.301 173.638 659.077 175.231C659.874 176.804 660.272 178.663 660.272 180.808C660.272 182.952 659.874 184.822 659.077 186.415C658.301 187.988 657.178 189.213 655.707 190.092C654.236 190.95 652.479 191.379 650.437 191.379ZM650.437 186.936C651.601 186.936 652.541 186.762 653.256 186.415C653.991 186.047 654.522 185.424 654.849 184.546C655.196 183.647 655.37 182.401 655.37 180.808C655.37 179.194 655.196 177.948 654.849 177.069C654.522 176.191 653.991 175.578 653.256 175.231C652.541 174.863 651.601 174.679 650.437 174.679C649.252 174.679 648.292 174.863 647.556 175.231C646.841 175.578 646.31 176.191 645.963 177.069C645.636 177.948 645.473 179.194 645.473 180.808C645.473 182.401 645.636 183.647 645.963 184.546C646.31 185.424 646.841 186.047 647.556 186.415C648.292 186.762 649.252 186.936 650.437 186.936ZM669.838 191.072H665.242V170.543H670.145L676.794 180.838L678.51 183.596H678.816L678.755 180.838V170.543H683.351V191.072H678.448L672.075 181.359L670.083 178.203H669.777L669.838 181.359V191.072Z" fill="#F22C54"/>
<path d="M805.02 152.19H701.205V132.35C701.205 124.415 702.403 117.99 704.798 113.078C707.193 108.165 710.471 104.134 714.631 100.985C718.917 97.8358 723.771 94.9386 729.192 92.2934L762.851 75.8548C764.742 74.9731 766.255 74.1543 767.39 73.3985C768.524 72.5167 769.344 71.509 769.848 70.3753C770.352 69.1157 770.604 67.5411 770.604 65.6516C770.604 63.2583 770.1 61.3688 769.092 59.9832C768.083 58.5975 766.318 57.5898 763.797 56.96C761.275 56.3302 757.746 56.0153 753.207 56.0153C748.165 56.0153 744.383 56.4561 741.861 57.3379C739.34 58.2196 737.638 59.6683 736.756 61.6837C735.999 63.5732 735.621 66.1555 735.621 69.4306V72.8317H700.07V69.8085C700.07 61.3688 701.898 53.6849 705.554 46.7568C709.336 39.7027 715.324 34.0972 723.519 29.9404C731.713 25.7835 742.555 23.7051 756.044 23.7051C767.768 23.7051 777.286 25.5316 784.598 29.1846C792.036 32.8376 797.456 37.8132 800.86 44.1115C804.39 50.2838 806.155 57.2119 806.155 64.8958C806.155 72.9576 804.453 79.6968 801.049 85.1133C797.646 90.4039 793.296 94.7497 788.001 98.1507C782.707 101.426 777.286 104.008 771.739 105.898L748.102 113.833C744.446 115.093 742.113 116.353 741.105 117.612C740.096 118.872 739.592 120.384 739.592 122.147L757.746 120.258H805.02V152.19Z" fill="#F7F7F7"/>
<path d="M847.38 154.079C834.521 154.079 823.679 151.371 814.855 145.955C806.156 140.412 799.601 132.791 795.188 123.092C790.776 113.267 788.57 101.867 788.57 88.8923C788.57 75.9178 790.776 64.5809 795.188 54.8816C799.601 45.0562 806.156 37.4353 814.855 32.0188C823.679 26.4763 834.521 23.7051 847.38 23.7051C860.238 23.7051 871.017 26.4763 879.716 32.0188C888.54 37.4353 895.159 45.0562 899.571 54.8816C903.983 64.5809 906.19 75.9178 906.19 88.8923C906.19 101.867 903.983 113.267 899.571 123.092C895.159 132.791 888.54 140.412 879.716 145.955C871.017 151.371 860.238 154.079 847.38 154.079ZM847.38 119.502C852.801 119.502 856.961 118.809 859.86 117.423C862.886 115.912 864.966 112.952 866.101 108.543C867.361 104.134 867.992 97.5839 867.992 88.8923C867.992 80.0747 867.361 73.5245 866.101 69.2416C864.966 64.8328 862.886 61.9356 859.86 60.55C856.961 59.0384 852.801 58.2826 847.38 58.2826C841.959 58.2826 837.736 59.0384 834.71 60.55C831.685 61.9356 829.604 64.8328 828.47 69.2416C827.335 73.5245 826.768 80.0747 826.768 88.8923C826.768 97.5839 827.335 104.134 828.47 108.543C829.604 112.952 831.685 115.912 834.71 117.423C837.736 118.809 841.959 119.502 847.38 119.502Z" fill="#F7F7F7"/>
<path d="M996.386 152.19H892.571V132.35C892.571 124.415 893.768 117.99 896.164 113.078C898.559 108.165 901.837 104.134 905.997 100.985C910.283 97.8358 915.137 94.9386 920.557 92.2934L954.217 75.8548C956.108 74.9731 957.621 74.1543 958.755 73.3985C959.89 72.5167 960.709 71.509 961.214 70.3753C961.718 69.1157 961.97 67.5411 961.97 65.6516C961.97 63.2583 961.466 61.3688 960.457 59.9832C959.449 58.5975 957.684 57.5898 955.163 56.96C952.641 56.3302 949.111 56.0153 944.573 56.0153C939.53 56.0153 935.748 56.4561 933.227 57.3379C930.706 58.2196 929.004 59.6683 928.121 61.6837C927.365 63.5732 926.987 66.1555 926.987 69.4306V72.8317H891.436V69.8085C891.436 61.3688 893.264 53.6849 896.92 46.7568C900.702 39.7027 906.69 34.0972 914.884 29.9404C923.079 25.7835 933.92 23.7051 947.409 23.7051C959.134 23.7051 968.652 25.5316 975.963 29.1846C983.401 32.8376 988.822 37.8132 992.226 44.1115C995.756 50.2838 997.521 57.2119 997.521 64.8958C997.521 72.9576 995.819 79.6968 992.415 85.1133C989.011 90.4039 984.662 94.7497 979.367 98.1507C974.072 101.426 968.652 104.008 963.105 105.898L939.467 113.833C935.811 115.093 933.479 116.353 932.471 117.612C931.462 118.872 930.958 120.384 930.958 122.147L949.111 120.258H996.386V152.19Z" fill="#F7F7F7"/>
<path d="M989 27H1076.5V57H1018.75V65.5H1049.12C1065.69 65.5 1079.12 78.9315 1079.12 95.5V122.5C1079.12 139.069 1065.69 152.5 1049.12 152.5H1019C1002.43 152.5 989 139.069 989 122.5V108H1015V109.244C1015 119.68 1023.32 128.216 1033.75 128.487L1037.04 128.573C1046.06 128.807 1053.5 121.56 1053.5 112.539C1053.5 103.681 1046.32 96.5 1037.46 96.5H989V27Z" fill="#F7F7F7"/>
</svg>
